<mxfile host="app.diagrams.net" modified="2020-05-12T17:27:12.595Z" agent="5.0 (Macintosh; Intel Mac OS X 10_15_4) AppleWebKit/537.36 (KHTML, like Gecko) Chrome/81.0.4044.138 Safari/537.36" etag="Q2H-TKXFVbHQR_UDqfHx" version="13.1.0" type="github">
  <diagram id="Zf6IZv06va2XPrQwD09p" name="第 1 页">
    <mxGraphModel dx="2655" dy="2212" grid="1" gridSize="10" guides="1" tooltips="1" connect="1" arrows="1" fold="1" page="1" pageScale="1" pageWidth="827" pageHeight="1169" math="0" shadow="0">
      <root>
        <mxCell id="0" />
        <mxCell id="1" parent="0" />
        <mxCell id="IMlnfKx3iFtXS9hZIWbz-4" value="" style="edgeStyle=orthogonalEdgeStyle;rounded=0;orthogonalLoop=1;jettySize=auto;html=1;fontSize=18;entryX=0.5;entryY=0;entryDx=0;entryDy=0;" parent="1" source="IMlnfKx3iFtXS9hZIWbz-2" target="ad4qZqW91-yAQadWmKgG-16" edge="1">
          <mxGeometry relative="1" as="geometry" />
        </mxCell>
        <mxCell id="IMlnfKx3iFtXS9hZIWbz-2" value="Mirai" style="rounded=0;whiteSpace=wrap;html=1;fontSize=26;" parent="1" vertex="1">
          <mxGeometry x="580" y="-410" width="120" height="60" as="geometry" />
        </mxCell>
        <mxCell id="ad4qZqW91-yAQadWmKgG-41" style="edgeStyle=orthogonalEdgeStyle;rounded=0;orthogonalLoop=1;jettySize=auto;html=1;exitX=0.5;exitY=1;exitDx=0;exitDy=0;entryX=0.5;entryY=0;entryDx=0;entryDy=0;" edge="1" parent="1" source="IMlnfKx3iFtXS9hZIWbz-3" target="ad4qZqW91-yAQadWmKgG-75">
          <mxGeometry relative="1" as="geometry">
            <mxPoint x="640" y="131" as="targetPoint" />
          </mxGeometry>
        </mxCell>
        <mxCell id="ad4qZqW91-yAQadWmKgG-74" value="&lt;span style=&quot;font-size: 20px ; font-weight: 700 ; background-color: rgb(248 , 249 , 250)&quot;&gt;MessageList &amp;amp; ConfigList&lt;/span&gt;" style="edgeLabel;html=1;align=center;verticalAlign=middle;resizable=0;points=[];" vertex="1" connectable="0" parent="ad4qZqW91-yAQadWmKgG-41">
          <mxGeometry x="-0.3909" y="3" relative="1" as="geometry">
            <mxPoint as="offset" />
          </mxGeometry>
        </mxCell>
        <mxCell id="IMlnfKx3iFtXS9hZIWbz-3" value="Controller" style="rounded=0;whiteSpace=wrap;html=1;fontSize=26;" parent="1" vertex="1">
          <mxGeometry x="507.5" y="-10" width="265" height="60" as="geometry" />
        </mxCell>
        <mxCell id="IMlnfKx3iFtXS9hZIWbz-5" value="MessageChain" style="text;html=1;align=center;verticalAlign=middle;resizable=0;points=[];autosize=1;fontSize=20;fontStyle=1" parent="1" vertex="1">
          <mxGeometry x="640" y="-270" width="160" height="30" as="geometry" />
        </mxCell>
        <mxCell id="ad4qZqW91-yAQadWmKgG-62" style="edgeStyle=orthogonalEdgeStyle;rounded=0;orthogonalLoop=1;jettySize=auto;html=1;entryX=0;entryY=0.5;entryDx=0;entryDy=0;" edge="1" parent="1" source="IMlnfKx3iFtXS9hZIWbz-32" target="ad4qZqW91-yAQadWmKgG-10">
          <mxGeometry relative="1" as="geometry" />
        </mxCell>
        <mxCell id="IMlnfKx3iFtXS9hZIWbz-32" value="Custom Config" style="html=1;dashed=0;whitespace=wrap;shape=partialRectangle;right=0;fontSize=18;" parent="1" vertex="1">
          <mxGeometry x="-80" y="-235" width="180" height="30" as="geometry" />
        </mxCell>
        <mxCell id="IMlnfKx3iFtXS9hZIWbz-41" value="Config" style="text;html=1;align=center;verticalAlign=middle;resizable=0;points=[];autosize=1;fontSize=20;fontStyle=1" parent="1" vertex="1">
          <mxGeometry x="335" y="-10" width="80" height="30" as="geometry" />
        </mxCell>
        <mxCell id="IMlnfKx3iFtXS9hZIWbz-56" value="MessageList" style="text;html=1;align=center;verticalAlign=middle;resizable=0;points=[];autosize=1;fontSize=20;fontStyle=1" parent="1" vertex="1">
          <mxGeometry x="640" y="-70" width="140" height="30" as="geometry" />
        </mxCell>
        <mxCell id="IMlnfKx3iFtXS9hZIWbz-66" value="Each Face&lt;br style=&quot;font-size: 20px&quot;&gt;&amp;amp;&lt;br style=&quot;font-size: 20px&quot;&gt;Config" style="text;html=1;align=center;verticalAlign=middle;resizable=0;points=[];autosize=1;fontSize=20;rotation=0;fontStyle=1" parent="1" vertex="1">
          <mxGeometry x="320.0000000000001" y="431" width="110" height="80" as="geometry" />
        </mxCell>
        <mxCell id="IMlnfKx3iFtXS9hZIWbz-117" value="Each Image&lt;br style=&quot;font-size: 20px&quot;&gt;&amp;amp;&lt;br style=&quot;font-size: 20px&quot;&gt;Config" style="text;html=1;align=center;verticalAlign=middle;resizable=0;points=[];autosize=1;fontSize=20;rotation=0;fontStyle=1" parent="1" vertex="1">
          <mxGeometry x="560.0000000000002" y="431" width="130" height="80" as="geometry" />
        </mxCell>
        <mxCell id="IMlnfKx3iFtXS9hZIWbz-124" value="Each Event&lt;br style=&quot;font-size: 20px;&quot;&gt;&amp;amp;&lt;br style=&quot;font-size: 20px;&quot;&gt;Config" style="text;html=1;align=center;verticalAlign=middle;resizable=0;points=[];autosize=1;fontSize=20;rotation=0;fontStyle=1" parent="1" vertex="1">
          <mxGeometry x="940" y="161" width="120" height="80" as="geometry" />
        </mxCell>
        <mxCell id="IMlnfKx3iFtXS9hZIWbz-142" value="MessageList&lt;br style=&quot;font-size: 20px;&quot;&gt;&amp;amp;&lt;br style=&quot;font-size: 20px;&quot;&gt;Config" style="text;html=1;align=center;verticalAlign=middle;resizable=0;points=[];autosize=1;fontSize=20;fontStyle=1" parent="1" vertex="1">
          <mxGeometry x="315.35" y="321" width="140" height="80" as="geometry" />
        </mxCell>
        <mxCell id="ad4qZqW91-yAQadWmKgG-44" style="edgeStyle=orthogonalEdgeStyle;rounded=0;orthogonalLoop=1;jettySize=auto;html=1;exitX=0.5;exitY=1;exitDx=0;exitDy=0;entryX=0.5;entryY=0;entryDx=0;entryDy=0;" edge="1" parent="1" source="ad4qZqW91-yAQadWmKgG-6" target="ad4qZqW91-yAQadWmKgG-21">
          <mxGeometry relative="1" as="geometry" />
        </mxCell>
        <mxCell id="ad4qZqW91-yAQadWmKgG-45" style="edgeStyle=orthogonalEdgeStyle;rounded=0;orthogonalLoop=1;jettySize=auto;html=1;exitX=0.5;exitY=1;exitDx=0;exitDy=0;" edge="1" parent="1" source="ad4qZqW91-yAQadWmKgG-6" target="ad4qZqW91-yAQadWmKgG-27">
          <mxGeometry relative="1" as="geometry" />
        </mxCell>
        <mxCell id="ad4qZqW91-yAQadWmKgG-46" style="edgeStyle=orthogonalEdgeStyle;rounded=0;orthogonalLoop=1;jettySize=auto;html=1;exitX=0.5;exitY=1;exitDx=0;exitDy=0;" edge="1" parent="1" source="ad4qZqW91-yAQadWmKgG-6" target="ad4qZqW91-yAQadWmKgG-26">
          <mxGeometry relative="1" as="geometry" />
        </mxCell>
        <mxCell id="ad4qZqW91-yAQadWmKgG-6" value="&lt;font style=&quot;font-size: 24px&quot;&gt;MessageHandler&lt;/font&gt;" style="rounded=1;whiteSpace=wrap;html=1;" vertex="1" parent="1">
          <mxGeometry x="210.71" y="251" width="209.29" height="60" as="geometry" />
        </mxCell>
        <mxCell id="ad4qZqW91-yAQadWmKgG-63" style="edgeStyle=orthogonalEdgeStyle;rounded=0;orthogonalLoop=1;jettySize=auto;html=1;entryX=0;entryY=0.5;entryDx=0;entryDy=0;" edge="1" parent="1" source="ad4qZqW91-yAQadWmKgG-10" target="IMlnfKx3iFtXS9hZIWbz-3">
          <mxGeometry relative="1" as="geometry">
            <Array as="points">
              <mxPoint x="240" y="20" />
            </Array>
          </mxGeometry>
        </mxCell>
        <mxCell id="ad4qZqW91-yAQadWmKgG-10" value="&lt;font style=&quot;font-size: 24px&quot;&gt;Merge Config&lt;/font&gt;" style="rounded=1;whiteSpace=wrap;html=1;" vertex="1" parent="1">
          <mxGeometry x="150" y="-247.5" width="170" height="55" as="geometry" />
        </mxCell>
        <mxCell id="ad4qZqW91-yAQadWmKgG-61" style="edgeStyle=orthogonalEdgeStyle;rounded=0;orthogonalLoop=1;jettySize=auto;html=1;entryX=1;entryY=0.5;entryDx=0;entryDy=0;" edge="1" parent="1" source="ad4qZqW91-yAQadWmKgG-11" target="ad4qZqW91-yAQadWmKgG-10">
          <mxGeometry relative="1" as="geometry" />
        </mxCell>
        <mxCell id="ad4qZqW91-yAQadWmKgG-11" value="Default Config" style="html=1;dashed=0;whitespace=wrap;shape=partialRectangle;right=0;fontSize=18;" vertex="1" parent="1">
          <mxGeometry x="380" y="-235" width="180" height="30" as="geometry" />
        </mxCell>
        <mxCell id="ad4qZqW91-yAQadWmKgG-19" style="edgeStyle=orthogonalEdgeStyle;rounded=0;orthogonalLoop=1;jettySize=auto;html=1;exitX=0.5;exitY=1;exitDx=0;exitDy=0;" edge="1" parent="1" source="ad4qZqW91-yAQadWmKgG-16" target="IMlnfKx3iFtXS9hZIWbz-3">
          <mxGeometry relative="1" as="geometry">
            <mxPoint x="640" y="-100" as="sourcePoint" />
            <Array as="points">
              <mxPoint x="640" y="-20" />
              <mxPoint x="640" y="-20" />
            </Array>
          </mxGeometry>
        </mxCell>
        <mxCell id="ad4qZqW91-yAQadWmKgG-16" value="&lt;font style=&quot;font-size: 24px&quot;&gt;Filter&lt;/font&gt;" style="rounded=1;whiteSpace=wrap;html=1;" vertex="1" parent="1">
          <mxGeometry x="580" y="-170" width="120" height="60" as="geometry" />
        </mxCell>
        <mxCell id="ad4qZqW91-yAQadWmKgG-53" style="edgeStyle=orthogonalEdgeStyle;rounded=0;orthogonalLoop=1;jettySize=auto;html=1;exitX=0.5;exitY=1;exitDx=0;exitDy=0;" edge="1" parent="1" source="ad4qZqW91-yAQadWmKgG-21" target="ad4qZqW91-yAQadWmKgG-47">
          <mxGeometry relative="1" as="geometry" />
        </mxCell>
        <mxCell id="ad4qZqW91-yAQadWmKgG-21" value="&lt;font style=&quot;font-size: 24px&quot;&gt;FaceHandler&lt;/font&gt;" style="rounded=1;whiteSpace=wrap;html=1;" vertex="1" parent="1">
          <mxGeometry x="210.7" y="515.5" width="210" height="60" as="geometry" />
        </mxCell>
        <mxCell id="ad4qZqW91-yAQadWmKgG-54" style="edgeStyle=orthogonalEdgeStyle;rounded=0;orthogonalLoop=1;jettySize=auto;html=1;entryX=0.5;entryY=0;entryDx=0;entryDy=0;" edge="1" parent="1">
          <mxGeometry relative="1" as="geometry">
            <mxPoint x="934.7142857142858" y="308" as="sourcePoint" />
            <mxPoint x="560.3500000000004" y="758" as="targetPoint" />
            <Array as="points">
              <mxPoint x="935" y="668" />
              <mxPoint x="560" y="668" />
            </Array>
          </mxGeometry>
        </mxCell>
        <mxCell id="ad4qZqW91-yAQadWmKgG-67" value="&lt;font style=&quot;font-size: 18px&quot;&gt;MessageList&lt;/font&gt;" style="edgeLabel;html=1;align=center;verticalAlign=middle;resizable=0;points=[];" vertex="1" connectable="0" parent="ad4qZqW91-yAQadWmKgG-54">
          <mxGeometry x="-0.3865" y="-2" relative="1" as="geometry">
            <mxPoint as="offset" />
          </mxGeometry>
        </mxCell>
        <mxCell id="ad4qZqW91-yAQadWmKgG-24" value="&lt;font style=&quot;font-size: 24px&quot;&gt;EventHandler&lt;/font&gt;" style="rounded=1;whiteSpace=wrap;html=1;" vertex="1" parent="1">
          <mxGeometry x="830.0000000000001" y="251" width="209.29" height="60" as="geometry" />
        </mxCell>
        <mxCell id="ad4qZqW91-yAQadWmKgG-52" style="edgeStyle=orthogonalEdgeStyle;rounded=0;orthogonalLoop=1;jettySize=auto;html=1;exitX=0.5;exitY=1;exitDx=0;exitDy=0;entryX=0.5;entryY=0;entryDx=0;entryDy=0;" edge="1" parent="1" source="ad4qZqW91-yAQadWmKgG-26" target="ad4qZqW91-yAQadWmKgG-47">
          <mxGeometry relative="1" as="geometry" />
        </mxCell>
        <mxCell id="ad4qZqW91-yAQadWmKgG-26" value="&lt;font style=&quot;font-size: 24px&quot;&gt;PlainHandler&lt;/font&gt;" style="rounded=1;whiteSpace=wrap;html=1;" vertex="1" parent="1">
          <mxGeometry x="-34.65" y="515.5" width="210" height="60" as="geometry" />
        </mxCell>
        <mxCell id="ad4qZqW91-yAQadWmKgG-51" style="edgeStyle=orthogonalEdgeStyle;rounded=0;orthogonalLoop=1;jettySize=auto;html=1;exitX=0.5;exitY=1;exitDx=0;exitDy=0;" edge="1" parent="1" source="ad4qZqW91-yAQadWmKgG-27" target="ad4qZqW91-yAQadWmKgG-47">
          <mxGeometry relative="1" as="geometry" />
        </mxCell>
        <mxCell id="ad4qZqW91-yAQadWmKgG-27" value="&lt;font style=&quot;font-size: 24px&quot;&gt;ImageHandler&lt;/font&gt;" style="rounded=1;whiteSpace=wrap;html=1;" vertex="1" parent="1">
          <mxGeometry x="455.35" y="515.5" width="210" height="60" as="geometry" />
        </mxCell>
        <mxCell id="ad4qZqW91-yAQadWmKgG-29" value="Each Plain&lt;br style=&quot;font-size: 20px&quot;&gt;&amp;amp;&lt;br style=&quot;font-size: 20px&quot;&gt;Config" style="text;html=1;align=center;verticalAlign=middle;resizable=0;points=[];autosize=1;fontSize=20;rotation=0;fontStyle=1" vertex="1" parent="1">
          <mxGeometry x="70.00000000000017" y="435.5" width="120" height="80" as="geometry" />
        </mxCell>
        <mxCell id="ad4qZqW91-yAQadWmKgG-68" style="edgeStyle=orthogonalEdgeStyle;rounded=0;orthogonalLoop=1;jettySize=auto;html=1;entryX=1;entryY=0.5;entryDx=0;entryDy=0;" edge="1" parent="1" source="ad4qZqW91-yAQadWmKgG-33" target="IMlnfKx3iFtXS9hZIWbz-2">
          <mxGeometry relative="1" as="geometry">
            <Array as="points">
              <mxPoint x="1140" y="900" />
              <mxPoint x="1140" y="-380" />
            </Array>
          </mxGeometry>
        </mxCell>
        <mxCell id="ad4qZqW91-yAQadWmKgG-69" value="&lt;font style=&quot;font-size: 18px&quot;&gt;MessageList&lt;/font&gt;" style="edgeLabel;html=1;align=center;verticalAlign=middle;resizable=0;points=[];" vertex="1" connectable="0" parent="ad4qZqW91-yAQadWmKgG-68">
          <mxGeometry x="-0.2484" y="1" relative="1" as="geometry">
            <mxPoint y="-1" as="offset" />
          </mxGeometry>
        </mxCell>
        <mxCell id="ad4qZqW91-yAQadWmKgG-33" value="&lt;font style=&quot;font-size: 24px&quot;&gt;MessageSender&lt;/font&gt;" style="rounded=1;whiteSpace=wrap;html=1;" vertex="1" parent="1">
          <mxGeometry x="455.35" y="901" width="210" height="60" as="geometry" />
        </mxCell>
        <mxCell id="ad4qZqW91-yAQadWmKgG-42" style="edgeStyle=orthogonalEdgeStyle;rounded=0;orthogonalLoop=1;jettySize=auto;html=1;entryX=0.5;entryY=0;entryDx=0;entryDy=0;" edge="1" parent="1" target="ad4qZqW91-yAQadWmKgG-6">
          <mxGeometry relative="1" as="geometry">
            <mxPoint x="535" y="161" as="sourcePoint" />
          </mxGeometry>
        </mxCell>
        <mxCell id="ad4qZqW91-yAQadWmKgG-79" value="&lt;span style=&quot;font-size: 20px ; font-weight: 700 ; background-color: rgb(248 , 249 , 250)&quot;&gt;MessageList&amp;nbsp;&lt;/span&gt;&lt;span style=&quot;font-size: 20px ; font-weight: 700 ; background-color: rgb(248 , 249 , 250)&quot;&gt;&amp;amp;&amp;nbsp;&lt;/span&gt;&lt;span style=&quot;font-size: 20px ; font-weight: 700 ; background-color: rgb(248 , 249 , 250)&quot;&gt;Config&lt;/span&gt;" style="edgeLabel;html=1;align=center;verticalAlign=middle;resizable=0;points=[];" vertex="1" connectable="0" parent="ad4qZqW91-yAQadWmKgG-42">
          <mxGeometry x="0.7438" y="-4" relative="1" as="geometry">
            <mxPoint as="offset" />
          </mxGeometry>
        </mxCell>
        <mxCell id="ad4qZqW91-yAQadWmKgG-43" style="edgeStyle=orthogonalEdgeStyle;rounded=0;orthogonalLoop=1;jettySize=auto;html=1;exitX=1;exitY=0.5;exitDx=0;exitDy=0;entryX=0.5;entryY=0;entryDx=0;entryDy=0;" edge="1" parent="1" source="ad4qZqW91-yAQadWmKgG-75" target="ad4qZqW91-yAQadWmKgG-24">
          <mxGeometry relative="1" as="geometry">
            <mxPoint x="745" y="161" as="sourcePoint" />
          </mxGeometry>
        </mxCell>
        <mxCell id="ad4qZqW91-yAQadWmKgG-55" style="edgeStyle=orthogonalEdgeStyle;rounded=0;orthogonalLoop=1;jettySize=auto;html=1;exitX=0.5;exitY=1;exitDx=0;exitDy=0;entryX=0.5;entryY=0;entryDx=0;entryDy=0;" edge="1" parent="1" source="ad4qZqW91-yAQadWmKgG-47" target="ad4qZqW91-yAQadWmKgG-33">
          <mxGeometry relative="1" as="geometry" />
        </mxCell>
        <mxCell id="ad4qZqW91-yAQadWmKgG-70" value="&lt;span style=&quot;background-color: rgb(248 , 249 , 250)&quot;&gt;&lt;font style=&quot;font-size: 24px&quot;&gt;MessageList&lt;/font&gt;&lt;/span&gt;" style="edgeLabel;html=1;align=center;verticalAlign=middle;resizable=0;points=[];" vertex="1" connectable="0" parent="ad4qZqW91-yAQadWmKgG-55">
          <mxGeometry x="-0.3" y="-2" relative="1" as="geometry">
            <mxPoint as="offset" />
          </mxGeometry>
        </mxCell>
        <mxCell id="ad4qZqW91-yAQadWmKgG-47" value="&lt;font style=&quot;font-size: 24px&quot;&gt;Merge&lt;/font&gt;" style="rounded=1;whiteSpace=wrap;html=1;" vertex="1" parent="1">
          <mxGeometry x="500.35" y="761" width="120" height="60" as="geometry" />
        </mxCell>
        <mxCell id="ad4qZqW91-yAQadWmKgG-56" value="MessageList" style="text;html=1;align=center;verticalAlign=middle;resizable=0;points=[];autosize=1;fontSize=20;fontStyle=1" vertex="1" parent="1">
          <mxGeometry x="80" y="631" width="140" height="30" as="geometry" />
        </mxCell>
        <mxCell id="ad4qZqW91-yAQadWmKgG-57" value="MessageList" style="text;html=1;align=center;verticalAlign=middle;resizable=0;points=[];autosize=1;fontSize=20;fontStyle=1" vertex="1" parent="1">
          <mxGeometry x="320" y="631" width="140" height="30" as="geometry" />
        </mxCell>
        <mxCell id="ad4qZqW91-yAQadWmKgG-58" value="MessageList" style="text;html=1;align=center;verticalAlign=middle;resizable=0;points=[];autosize=1;fontSize=20;fontStyle=1" vertex="1" parent="1">
          <mxGeometry x="560" y="631" width="140" height="30" as="geometry" />
        </mxCell>
        <mxCell id="ad4qZqW91-yAQadWmKgG-75" value="&lt;span style=&quot;font-size: 24px&quot;&gt;EventReceiver&lt;/span&gt;" style="rounded=0;whiteSpace=wrap;html=1;" vertex="1" parent="1">
          <mxGeometry x="535" y="130" width="210" height="61" as="geometry" />
        </mxCell>
      </root>
    </mxGraphModel>
  </diagram>
</mxfile>
